<svg width="18" height="17" viewBox="0 0 18 17" fill="none" xmlns="http://www.w3.org/2000/svg">
<path d="M2.8916 16.4268H14.9941C16.9014 16.4268 17.8945 15.4424 17.8945 13.5615V2.86523C17.8945 0.984375 16.9014 0 14.9941 0H2.8916C0.993164 0 0 0.975586 0 2.86523V13.5615C0 15.4424 0.993164 16.4268 2.8916 16.4268ZM2.88281 14.6777C2.15332 14.6777 1.74902 14.2998 1.74902 13.5264V5.44043C1.74902 4.66699 2.15332 4.28906 2.88281 4.28906H15.0029C15.7324 4.28906 16.1367 4.66699 16.1367 5.44043V13.5264C16.1367 14.2998 15.7324 14.6777 15.0029 14.6777H2.88281ZM4.38574 7.44434H13.5176C13.834 7.44434 14.0713 7.19824 14.0713 6.87305C14.0713 6.56543 13.834 6.32812 13.5176 6.32812H4.38574C4.06055 6.32812 3.82324 6.56543 3.82324 6.87305C3.82324 7.19824 4.06055 7.44434 4.38574 7.44434ZM4.38574 10.0371H13.5176C13.834 10.0371 14.0713 9.7998 14.0713 9.49219C14.0713 9.17578 13.834 8.9209 13.5176 8.9209H4.38574C4.06055 8.9209 3.82324 9.17578 3.82324 9.49219C3.82324 9.7998 4.06055 10.0371 4.38574 10.0371ZM4.38574 12.6299H10.1514C10.4678 12.6299 10.7051 12.3926 10.7051 12.085C10.7051 11.7686 10.4678 11.5225 10.1514 11.5225H4.38574C4.06055 11.5225 3.82324 11.7686 3.82324 12.085C3.82324 12.3926 4.06055 12.6299 4.38574 12.6299Z" fill="black"/>
</svg>
