<svg width="17" height="18" viewBox="0 0 17 18" fill="none" xmlns="http://www.w3.org/2000/svg">
<path d="M3.9165 13.5834L10.1665 10.6667L13.0832 4.41669L6.83317 7.33335L3.9165 13.5834ZM8.49984 9.83335C8.26373 9.83335 8.06595 9.75335 7.9065 9.59335C7.7465 9.43391 7.6665 9.23613 7.6665 9.00002C7.6665 8.76391 7.7465 8.56585 7.9065 8.40585C8.06595 8.24641 8.26373 8.16669 8.49984 8.16669C8.73595 8.16669 8.934 8.24641 9.094 8.40585C9.25345 8.56585 9.33317 8.76391 9.33317 9.00002C9.33317 9.23613 9.25345 9.43391 9.094 9.59335C8.934 9.75335 8.73595 9.83335 8.49984 9.83335ZM8.49984 17.3334C7.34706 17.3334 6.26373 17.1145 5.24984 16.6767C4.23595 16.2395 3.354 15.6459 2.604 14.8959C1.854 14.1459 1.26039 13.2639 0.823171 12.25C0.385393 11.2361 0.166504 10.1528 0.166504 9.00002C0.166504 7.84724 0.385393 6.76391 0.823171 5.75002C1.26039 4.73613 1.854 3.85419 2.604 3.10419C3.354 2.35419 4.23595 1.7603 5.24984 1.32252C6.26373 0.885298 7.34706 0.666687 8.49984 0.666687C9.65262 0.666687 10.7359 0.885298 11.7498 1.32252C12.7637 1.7603 13.6457 2.35419 14.3957 3.10419C15.1457 3.85419 15.7393 4.73613 16.1765 5.75002C16.6143 6.76391 16.8332 7.84724 16.8332 9.00002C16.8332 10.1528 16.6143 11.2361 16.1765 12.25C15.7393 13.2639 15.1457 14.1459 14.3957 14.8959C13.6457 15.6459 12.7637 16.2395 11.7498 16.6767C10.7359 17.1145 9.65262 17.3334 8.49984 17.3334ZM8.49984 15.6667C10.3609 15.6667 11.9373 15.0209 13.229 13.7292C14.5207 12.4375 15.1665 10.8611 15.1665 9.00002C15.1665 7.13891 14.5207 5.56252 13.229 4.27085C11.9373 2.97919 10.3609 2.33335 8.49984 2.33335C6.63873 2.33335 5.06234 2.97919 3.77067 4.27085C2.479 5.56252 1.83317 7.13891 1.83317 9.00002C1.83317 10.8611 2.479 12.4375 3.77067 13.7292C5.06234 15.0209 6.63873 15.6667 8.49984 15.6667Z" fill="#F6F7FB"/>
</svg>
