<svg width="22" height="28" viewBox="0 0 22 28" fill="none" xmlns="http://www.w3.org/2000/svg">
<path d="M11 14C11.7334 14 12.3614 13.7387 12.884 13.216C13.4058 12.6942 13.6667 12.0667 13.6667 11.3333C13.6667 10.6 13.4058 9.972 12.884 9.44934C12.3614 8.92756 11.7334 8.66667 11 8.66667C10.2667 8.66667 9.63915 8.92756 9.11737 9.44934C8.59471 9.972 8.33337 10.6 8.33337 11.3333C8.33337 12.0667 8.59471 12.6942 9.11737 13.216C9.63915 13.7387 10.2667 14 11 14ZM11 23.8C13.7112 21.3111 15.7223 19.0498 17.0334 17.016C18.3445 14.9831 19 13.1778 19 11.6C19 9.17778 18.2276 7.19423 16.6827 5.64934C15.1387 4.10534 13.2445 3.33334 11 3.33334C8.7556 3.33334 6.86093 4.10534 5.31604 5.64934C3.77204 7.19423 3.00004 9.17778 3.00004 11.6C3.00004 13.1778 3.6556 14.9831 4.96671 17.016C6.27782 19.0498 8.28893 21.3111 11 23.8ZM11 27.3333C7.42226 24.2889 4.75026 21.4609 2.98404 18.8493C1.21693 16.2387 0.333374 13.8222 0.333374 11.6C0.333374 8.26667 1.40582 5.61112 3.55071 3.63334C5.69471 1.65556 8.17782 0.666672 11 0.666672C13.8223 0.666672 16.3054 1.65556 18.4494 3.63334C20.5943 5.61112 21.6667 8.26667 21.6667 11.6C21.6667 13.8222 20.7836 16.2387 19.0174 18.8493C17.2503 21.4609 14.5778 24.2889 11 27.3333Z" fill="#FFC107"/>
</svg>
