<svg width="19" height="19" viewBox="0 0 19 19" fill="none" xmlns="http://www.w3.org/2000/svg">
<path d="M9.08789 18.1758C14.0713 18.1758 18.1846 14.0625 18.1846 9.08789C18.1846 4.11328 14.0625 0 9.0791 0C4.10449 0 0 4.11328 0 9.08789C0 14.0625 4.11328 18.1758 9.08789 18.1758ZM6.76758 7.29492C6.72363 6.96094 6.57422 6.66211 6.3457 6.43359C7.09277 4.55273 8.27051 2.85645 9.7998 1.45898C9.89648 1.46777 10.002 1.48535 10.1074 1.49414C9.02637 3.38379 8.37598 5.48438 8.20898 7.66406C7.7168 7.57617 7.2334 7.45312 6.76758 7.29492ZM2.75977 4.80762C3.96387 3.0498 5.87109 1.80176 8.05957 1.49414C6.83789 2.83008 5.87109 4.35938 5.2207 6.02051C4.96582 6.03809 4.7373 6.11719 4.54395 6.24023C3.90234 5.83594 3.30469 5.35254 2.75977 4.80762ZM11.9004 4.86035C11.8916 3.9375 12.0059 3.01465 12.2607 2.12695C13.8867 2.88281 15.2227 4.19238 15.9961 5.80957C15.1436 6.45996 14.1943 6.95215 13.1924 7.29492C12.9287 6.97852 12.542 6.77637 12.1113 6.76758C11.9795 6.14355 11.9092 5.51074 11.9004 4.86035ZM10.6963 4.86035C10.7051 5.67773 10.8018 6.48633 10.9863 7.25977C10.8545 7.40918 10.749 7.59375 10.6963 7.78711C10.4678 7.80469 10.248 7.81348 10.0195 7.81348C9.81738 7.81348 9.60645 7.81348 9.4043 7.7959C9.54492 5.92383 10.0635 4.11328 10.9336 2.4873C10.7666 3.25195 10.6875 4.05176 10.6963 4.86035ZM1.43262 9.08789C1.43262 7.9541 1.67871 6.88184 2.13574 5.90625C2.67188 6.41602 3.26074 6.87305 3.88477 7.25977C3.87598 7.33008 3.86719 7.3916 3.86719 7.46191C3.86719 7.93652 4.0957 8.36719 4.45605 8.63086C4.28906 9.4834 4.20117 10.3623 4.19238 11.2412C3.2168 10.7666 2.29395 10.1602 1.44141 9.43945C1.43262 9.3252 1.43262 9.20215 1.43262 9.08789ZM16.752 9.08789C16.752 9.78223 16.6553 10.459 16.4795 11.1006C15.9873 11.3643 15.4863 11.5928 14.9766 11.7861C14.1855 11.0566 13.5352 10.2129 13.0342 9.28125C13.2627 9.07031 13.4297 8.78906 13.4912 8.46387C14.5459 8.12109 15.5391 7.62891 16.4531 6.9873C16.6465 7.65527 16.752 8.3584 16.752 9.08789ZM5.39648 11.7686C5.37012 10.793 5.44922 9.82617 5.625 8.88574C5.92383 8.82422 6.19629 8.66602 6.39844 8.44629C6.96973 8.63086 7.55859 8.78027 8.16504 8.87695C8.17383 9.95801 8.29688 11.0215 8.52539 12.0586C8.37598 12.1816 8.25293 12.3311 8.16504 12.498C7.22461 12.3574 6.29297 12.1113 5.39648 11.7686ZM10.0195 9.01758C10.3008 9.01758 10.582 9.00879 10.8633 8.98242C11.083 9.3252 11.4434 9.5625 11.8564 9.63281C12.3398 10.5732 12.9551 11.4346 13.6934 12.1992C12.7441 12.4541 11.7686 12.6035 10.793 12.6475C10.6084 12.1816 10.1953 11.8389 9.70312 11.7598C9.50098 10.8633 9.38672 9.94043 9.37793 9C9.58887 9.01758 9.80859 9.01758 10.0195 9.01758ZM1.73145 11.1885C2.51367 11.7422 3.35742 12.208 4.21875 12.5947C4.27148 13.5088 4.41211 14.4141 4.64941 15.3018C3.26074 14.3086 2.21484 12.8584 1.73145 11.1885ZM9.08789 16.752C8.06836 16.752 7.09277 16.541 6.19629 16.1719C5.81836 15.1787 5.57227 14.1416 5.4668 13.0781C6.31934 13.3682 7.19824 13.5791 8.07715 13.7021C8.2793 14.2383 8.78027 14.6162 9.37793 14.6426C9.66797 15.3281 10.0195 15.9961 10.4238 16.6289C9.99316 16.708 9.54492 16.752 9.08789 16.752ZM10.5029 14.1943C10.5996 14.0977 10.6787 13.9746 10.7402 13.8516C12.0938 13.7988 13.4297 13.5703 14.7305 13.1484C14.915 13.2979 15.0996 13.4297 15.2842 13.5615C14.3789 14.8096 13.1133 15.7764 11.6455 16.3037C11.1973 15.6357 10.8193 14.9326 10.5029 14.1943Z" fill="#767676"/>
</svg>
