<svg width="18" height="18" viewBox="0 0 18 18" fill="none" xmlns="http://www.w3.org/2000/svg">
<path d="M16.6377 2.30139L17.2969 1.60706C17.6309 1.2555 17.6572 0.772097 17.3232 0.438113L17.0947 0.200808C16.7959 -0.0980202 16.2949 -0.0540749 15.9697 0.27112L15.2842 0.939089L16.6377 2.30139ZM6.23145 11.653L8.0332 10.8971L15.9961 2.93421L14.6426 1.58948L6.67969 9.56116L5.88867 11.3014C5.80078 11.5035 6.0293 11.7321 6.23145 11.653ZM2.8916 17.5504H13.1309C14.8184 17.5504 15.8115 16.566 15.8115 14.6852V5.40393L14.0537 7.15296V14.527C14.0537 15.3707 13.6055 15.7926 13.0166 15.7926H3.00586C2.19727 15.7926 1.75781 15.3707 1.75781 14.527V4.76233C1.75781 3.91858 2.19727 3.49671 3.00586 3.49671H10.4678L12.2168 1.73889H2.8916C0.993164 1.73889 0 2.72327 0 4.60413V14.6852C0 16.566 0.993164 17.5504 2.8916 17.5504Z" fill="black"/>
</svg>
