<svg width="24" height="24" viewBox="0 0 24 24" fill="none" xmlns="http://www.w3.org/2000/svg">
<path d="M17.3555 23.2972C19.4062 23.2972 20.8008 22.7113 22.0664 21.3402C22.1484 21.2464 22.2305 21.1409 22.3125 21.0472C23.0039 20.2738 23.3438 19.4652 23.3438 18.7152C23.3438 17.8363 22.875 17.0394 21.832 16.3245L18.3398 13.887C17.2383 13.1253 15.9609 13.0667 14.9766 14.0511L14.1094 14.9183C13.8047 15.223 13.5117 15.2464 13.1602 15.0003C12.5273 14.5784 11.332 13.5238 10.5117 12.7034C9.67969 11.8714 8.83594 10.9339 8.37891 10.2191C8.13281 9.85579 8.15625 9.57454 8.46094 9.26985L9.32812 8.40267C10.3125 7.41829 10.2539 6.14095 9.48047 5.03939L6.99609 1.4886C6.30469 0.480792 5.47266 0.0120423 4.59375 0.000323541C3.84375 -0.0113952 3.04688 0.328449 2.27344 1.00814C2.17969 1.09017 2.08594 1.1722 1.99219 1.25423C0.597656 2.53157 0 3.90267 0 6.03548C0 9.49251 2.00391 13.5706 5.90625 17.4495C9.78516 21.305 13.8164 23.2972 17.3555 23.2972ZM17.3555 21.3402C14.3672 21.387 10.6523 19.2659 7.39453 16.0316C4.11328 12.7972 1.93359 8.94173 1.98047 5.95345C2.00391 4.69954 2.44922 3.59798 3.32812 2.82454C3.42188 2.75423 3.49219 2.69564 3.58594 2.62532C3.91406 2.34407 4.26562 2.19173 4.59375 2.19173C4.93359 2.19173 5.23828 2.33235 5.47266 2.68392L7.66406 5.97689C7.94531 6.37532 7.95703 6.83235 7.54688 7.23079L6.60938 8.15657C5.71875 9.02376 5.80078 10.0433 6.36328 10.8402C6.99609 11.7191 8.17969 13.0667 9.17578 14.0511C10.2422 15.1058 11.6953 16.4066 12.5391 17.0159C13.3359 17.5784 14.3555 17.6605 15.2227 16.7699L16.1484 15.8324C16.5352 15.4222 16.9922 15.4339 17.4023 15.7034L20.6367 17.8597C21 18.0941 21.1289 18.387 21.1289 18.7269C21.1289 19.055 20.9766 19.4066 20.6953 19.7464C20.625 19.8284 20.5664 19.8988 20.4961 19.9925C19.7227 20.8831 18.6211 21.3284 17.3555 21.3402Z" fill="#FFC107"/>
</svg>
