<svg width="16" height="17" viewBox="0 0 16 17" fill="none" xmlns="http://www.w3.org/2000/svg">
<path d="M7.73438 8.25293C9.86133 8.25293 11.584 6.37207 11.584 4.06934C11.584 1.80176 9.86133 0 7.73438 0C5.61621 0 3.87598 1.82812 3.88477 4.08691C3.89355 6.38086 5.60742 8.25293 7.73438 8.25293ZM7.73438 6.71484C6.52148 6.71484 5.49316 5.56348 5.49316 4.08691C5.48438 2.64551 6.5127 1.53809 7.73438 1.53809C8.96484 1.53809 9.97559 2.62793 9.97559 4.06934C9.97559 5.5459 8.95605 6.71484 7.73438 6.71484ZM2.25 16.4268H13.21C14.7305 16.4268 15.46 15.9434 15.46 14.9062C15.46 12.4893 12.4453 9.27246 7.73438 9.27246C3.02344 9.27246 0 12.4893 0 14.9062C0 15.9434 0.729492 16.4268 2.25 16.4268ZM1.97754 14.8887C1.7666 14.8887 1.6875 14.8184 1.6875 14.6602C1.6875 13.3154 3.8584 10.8105 7.73438 10.8105C11.6016 10.8105 13.7725 13.3154 13.7725 14.6602C13.7725 14.8184 13.6934 14.8887 13.4824 14.8887H1.97754Z" fill="black"/>
</svg>
